<svg xmlns="http://www.w3.org/2000/svg" width="18" height="18" viewBox="0 0 18 18">
    <path d="M11.625,10.5H11.033L10.823,10.297C11.722,9.248 12.188,7.815 11.932,6.293C11.58,4.208 9.84,2.543 7.74,2.288C4.568,1.898 1.898,4.568 2.287,7.74C2.543,9.84 4.207,11.58 6.293,11.932C7.815,12.188 9.248,11.722 10.297,10.823L10.5,11.033V11.625L13.688,14.813C13.995,15.12 14.498,15.12 14.805,14.813C15.113,14.505 15.113,14.002 14.805,13.695L11.625,10.5ZM7.125,10.5C5.258,10.5 3.75,8.993 3.75,7.125C3.75,5.258 5.258,3.75 7.125,3.75C8.993,3.75 10.5,5.258 10.5,7.125C10.5,8.993 8.993,10.5 7.125,10.5Z" fill="#B8B5B5"/>
</svg>