<svg width="51" height="51" viewBox="0 0 51 51" fill="none" xmlns="http://www.w3.org/2000/svg">
<defs>
<linearGradient id="arrowGradient" x1="0%" y1="0%" x2="0%" y2="100%">
<stop offset="0%" style="stop-color:#B0B0B0;stop-opacity:1" />
<stop offset="100%" style="stop-color:#8B8B8B;stop-opacity:1" />
</linearGradient>
</defs>
<circle cx="25.5" cy="25.5" r="25.5" fill="#EEEAEA" fill-opacity="0.6"/>
<!-- 云朵背景 -->
<path d="M15 20 Q15 15 20 15 Q25 15 30 20 Q35 20 35 25 Q35 30 30 30 Q25 30 20 30 Q15 30 15 25 Q15 20 15 20 Z" fill="#D0D0D0" opacity="0.7"/>
<!-- 文件图标 -->
<rect x="18" y="18" width="15" height="20" rx="2" fill="#747272"/>
<rect x="18" y="18" width="15" height="4" rx="2" fill="#5A5A5A"/>
<!-- 文件内容 -->
<rect x="20" y="25" width="11" height="1" rx="0.5" fill="#EEEAEA"/>
<rect x="20" y="27" width="9" height="1" rx="0.5" fill="#EEEAEA"/>
<rect x="20" y="29" width="10" height="1" rx="0.5" fill="#EEEAEA"/>
<rect x="20" y="31" width="8" height="1" rx="0.5" fill="#EEEAEA"/>
<!-- 上传箭头 - 渐变填充 -->
<path d="M25.5 12 L22 18 L24 18 L24 22 L27 22 L27 18 L29.5 18 Z" fill="url(#arrowGradient)"/>
<!-- 装饰点 -->
<circle cx="22" cy="16" r="1" fill="#B0B0B0" opacity="0.8"/>
<circle cx="29" cy="16" r="1" fill="#B0B0B0" opacity="0.8"/>
</svg>
